<svg xmlns="http://www.w3.org/2000/svg" width="1600" height="900" viewBox="0 0 1600 900" role="img" aria-labelledby="title desc">
  <title id="title">A traditional publishing stack flattening into Markdown files</title>
  <desc id="desc">An editorial illustration contrasting a layered CMS stack with clear Markdown files flowing through Git into a simple static page.</desc>
  <defs>
    <linearGradient id="paper" x1="0" x2="1" y1="0" y2="1">
      <stop offset="0" stop-color="#faf7ef"/>
      <stop offset="1" stop-color="#f1e6d1"/>
    </linearGradient>
    <linearGradient id="cool" x1="0" x2="1" y1="0" y2="1">
      <stop offset="0" stop-color="#d9f4ec"/>
      <stop offset="1" stop-color="#78c6b3"/>
    </linearGradient>
    <linearGradient id="ink" x1="0" x2="1" y1="0" y2="1">
      <stop offset="0" stop-color="#34495a"/>
      <stop offset="1" stop-color="#1c2934"/>
    </linearGradient>
    <filter id="shadow" x="-20%" y="-20%" width="140%" height="140%">
      <feDropShadow dx="0" dy="18" stdDeviation="18" flood-color="#10202b" flood-opacity="0.18"/>
    </filter>
    <filter id="soft" x="-20%" y="-20%" width="140%" height="140%">
      <feGaussianBlur stdDeviation="10"/>
    </filter>
  </defs>

  <rect width="1600" height="900" fill="#f7f4ec"/>
  <rect x="0" y="0" width="1600" height="900" fill="url(#paper)"/>
  <path d="M0 708 C250 640 438 712 640 658 C890 592 1026 412 1260 372 C1408 346 1528 374 1600 416 L1600 900 L0 900 Z" fill="#d7e8e0" opacity="0.7"/>
  <circle cx="780" cy="436" r="290" fill="#f5c86b" opacity="0.18" filter="url(#soft)"/>

  <g transform="translate(142 176)" filter="url(#shadow)">
    <g opacity="0.98">
      <rect x="42" y="72" width="398" height="330" rx="14" fill="#fef9ef" stroke="#263844" stroke-width="5"/>
      <rect x="42" y="72" width="398" height="60" rx="14" fill="url(#ink)"/>
      <circle cx="78" cy="102" r="10" fill="#ef8354"/>
      <circle cx="112" cy="102" r="10" fill="#f6c85f"/>
      <circle cx="146" cy="102" r="10" fill="#7ac9a7"/>
      <rect x="76" y="166" width="130" height="26" rx="8" fill="#a35d6a"/>
      <rect x="76" y="214" width="298" height="20" rx="6" fill="#cdbfac"/>
      <rect x="76" y="254" width="244" height="20" rx="6" fill="#cdbfac"/>
      <rect x="76" y="294" width="322" height="20" rx="6" fill="#cdbfac"/>
      <rect x="76" y="346" width="96" height="28" rx="8" fill="#ef8354"/>
    </g>
    <rect x="0" y="196" width="372" height="300" rx="14" fill="#efe4d2" stroke="#263844" stroke-width="5"/>
    <rect x="0" y="196" width="372" height="56" rx="14" fill="#8a6f79"/>
    <rect x="36" y="286" width="116" height="74" rx="10" fill="#fdf8eb" stroke="#263844" stroke-width="4"/>
    <rect x="184" y="286" width="116" height="74" rx="10" fill="#fdf8eb" stroke="#263844" stroke-width="4"/>
    <rect x="36" y="390" width="264" height="34" rx="9" fill="#cdbfac"/>
    <rect x="36" y="444" width="206" height="24" rx="7" fill="#cdbfac"/>
    <rect x="92" y="464" width="372" height="112" rx="18" fill="#263844"/>
    <rect x="126" y="500" width="306" height="18" rx="6" fill="#b5c4cb"/>
    <rect x="126" y="534" width="204" height="18" rx="6" fill="#b5c4cb"/>
  </g>

  <g fill="none" stroke="#1f3740" stroke-width="7" stroke-linecap="round" stroke-linejoin="round" opacity="0.82">
    <path d="M626 452 C704 452 720 384 804 384"/>
    <path d="M626 452 C714 452 742 510 822 510"/>
    <path d="M626 452 C704 452 740 452 824 452"/>
    <path d="M786 352 L826 384 L786 416"/>
    <path d="M804 478 L844 510 L804 542"/>
    <path d="M806 420 L846 452 L806 484"/>
  </g>

  <g transform="translate(848 188)" filter="url(#shadow)">
    <g transform="rotate(-6 148 172)">
      <rect x="10" y="12" width="272" height="346" rx="12" fill="#fffdf8" stroke="#1f3740" stroke-width="5"/>
      <path d="M224 12 L282 70 L224 70 Z" fill="#d9f4ec" stroke="#1f3740" stroke-width="5"/>
      <rect x="52" y="82" width="128" height="18" rx="6" fill="#ef8354"/>
      <rect x="52" y="130" width="180" height="16" rx="6" fill="#8dbdae"/>
      <rect x="52" y="170" width="138" height="16" rx="6" fill="#cdbfac"/>
      <rect x="52" y="210" width="168" height="16" rx="6" fill="#cdbfac"/>
      <rect x="52" y="250" width="112" height="16" rx="6" fill="#cdbfac"/>
    </g>
    <g transform="translate(186 44) rotate(5 148 172)">
      <rect x="10" y="12" width="272" height="346" rx="12" fill="#fffdf8" stroke="#1f3740" stroke-width="5"/>
      <path d="M224 12 L282 70 L224 70 Z" fill="#d9f4ec" stroke="#1f3740" stroke-width="5"/>
      <rect x="52" y="82" width="142" height="18" rx="6" fill="#78c6b3"/>
      <rect x="52" y="130" width="184" height="16" rx="6" fill="#8dbdae"/>
      <rect x="52" y="170" width="154" height="16" rx="6" fill="#cdbfac"/>
      <rect x="52" y="210" width="190" height="16" rx="6" fill="#cdbfac"/>
      <rect x="52" y="250" width="118" height="16" rx="6" fill="#cdbfac"/>
    </g>
  </g>

  <g transform="translate(1104 520)" filter="url(#shadow)">
    <path d="M0 86 C48 20 142 20 190 86 C142 152 48 152 0 86 Z" fill="none" stroke="#1f3740" stroke-width="8"/>
    <circle cx="95" cy="86" r="42" fill="url(#cool)" stroke="#1f3740" stroke-width="8"/>
    <circle cx="95" cy="86" r="14" fill="#1f3740"/>
    <path d="M192 86 C276 86 298 30 374 30" fill="none" stroke="#1f3740" stroke-width="7" stroke-linecap="round"/>
    <path d="M192 86 C286 86 304 142 382 142" fill="none" stroke="#1f3740" stroke-width="7" stroke-linecap="round"/>
    <circle cx="390" cy="30" r="16" fill="#ef8354" stroke="#1f3740" stroke-width="6"/>
    <circle cx="398" cy="142" r="16" fill="#78c6b3" stroke="#1f3740" stroke-width="6"/>
  </g>

  <g transform="translate(996 154)" fill="none" stroke="#1f3740" stroke-width="7" stroke-linecap="round" stroke-linejoin="round">
    <circle cx="102" cy="58" r="26" fill="#fdf8eb"/>
    <circle cx="42" cy="180" r="24" fill="#fdf8eb"/>
    <circle cx="166" cy="180" r="24" fill="#fdf8eb"/>
    <path d="M102 84 L102 126 M102 126 L42 156 M102 126 L166 156"/>
  </g>
</svg>
